<mxfile host="app.diagrams.net" modified="2021-04-09T12:44:50.070Z" agent="5.0 (Windows NT 10.0; Win64; x64) AppleWebKit/537.36 (KHTML, like Gecko) Chrome/89.0.4389.114 Safari/537.36" etag="0cFiCY5CK8hV4xw_63-Y" version="14.5.6" type="github">
  <diagram id="lDZXGsGf8PDmbvTv2ClT" name="Page-1">
    <mxGraphModel dx="1422" dy="762" grid="1" gridSize="10" guides="1" tooltips="1" connect="1" arrows="1" fold="1" page="1" pageScale="1" pageWidth="827" pageHeight="1169" math="0" shadow="0">
      <root>
        <mxCell id="0" />
        <mxCell id="1" parent="0" />
        <mxCell id="jJIhmOGZWyuEW_naS8Bt-1" value="" style="ellipse;html=1;shape=startState;fillColor=#000000;strokeColor=#ff0000;" vertex="1" parent="1">
          <mxGeometry x="175" y="130" width="30" height="30" as="geometry" />
        </mxCell>
        <mxCell id="jJIhmOGZWyuEW_naS8Bt-2" value="" style="edgeStyle=orthogonalEdgeStyle;html=1;verticalAlign=bottom;endArrow=open;endSize=8;strokeColor=#ff0000;" edge="1" source="jJIhmOGZWyuEW_naS8Bt-1" parent="1">
          <mxGeometry relative="1" as="geometry">
            <mxPoint x="190" y="220" as="targetPoint" />
          </mxGeometry>
        </mxCell>
        <mxCell id="jJIhmOGZWyuEW_naS8Bt-3" value="Search item" style="rounded=1;whiteSpace=wrap;html=1;" vertex="1" parent="1">
          <mxGeometry x="130" y="340" width="120" height="60" as="geometry" />
        </mxCell>
        <mxCell id="jJIhmOGZWyuEW_naS8Bt-4" value="Enter app" style="rounded=1;whiteSpace=wrap;html=1;" vertex="1" parent="1">
          <mxGeometry x="135" y="220" width="120" height="60" as="geometry" />
        </mxCell>
        <mxCell id="jJIhmOGZWyuEW_naS8Bt-6" value="" style="endArrow=classic;html=1;exitX=0.45;exitY=1;exitDx=0;exitDy=0;exitPerimeter=0;entryX=0.5;entryY=0;entryDx=0;entryDy=0;" edge="1" parent="1" source="jJIhmOGZWyuEW_naS8Bt-4" target="jJIhmOGZWyuEW_naS8Bt-3">
          <mxGeometry width="50" height="50" relative="1" as="geometry">
            <mxPoint x="275" y="310" as="sourcePoint" />
            <mxPoint x="325" y="260" as="targetPoint" />
          </mxGeometry>
        </mxCell>
        <mxCell id="jJIhmOGZWyuEW_naS8Bt-8" value="" style="endArrow=classic;html=1;exitX=0.45;exitY=1;exitDx=0;exitDy=0;exitPerimeter=0;entryX=0.5;entryY=0;entryDx=0;entryDy=0;" edge="1" parent="1">
          <mxGeometry width="50" height="50" relative="1" as="geometry">
            <mxPoint x="189.5" y="400" as="sourcePoint" />
            <mxPoint x="190.5" y="460" as="targetPoint" />
          </mxGeometry>
        </mxCell>
        <mxCell id="jJIhmOGZWyuEW_naS8Bt-9" value="Search item size" style="rounded=1;whiteSpace=wrap;html=1;" vertex="1" parent="1">
          <mxGeometry x="130" y="460" width="120" height="60" as="geometry" />
        </mxCell>
        <mxCell id="jJIhmOGZWyuEW_naS8Bt-10" value="" style="endArrow=classic;html=1;exitX=0.45;exitY=1;exitDx=0;exitDy=0;exitPerimeter=0;entryX=0.5;entryY=0;entryDx=0;entryDy=0;" edge="1" parent="1">
          <mxGeometry width="50" height="50" relative="1" as="geometry">
            <mxPoint x="189.5" y="520" as="sourcePoint" />
            <mxPoint x="190.5" y="580" as="targetPoint" />
          </mxGeometry>
        </mxCell>
        <mxCell id="jJIhmOGZWyuEW_naS8Bt-11" value="View cart" style="rounded=1;whiteSpace=wrap;html=1;" vertex="1" parent="1">
          <mxGeometry x="135" y="580" width="120" height="60" as="geometry" />
        </mxCell>
        <mxCell id="jJIhmOGZWyuEW_naS8Bt-16" value="" style="endArrow=classic;html=1;exitX=0.45;exitY=1;exitDx=0;exitDy=0;exitPerimeter=0;entryX=0.5;entryY=0;entryDx=0;entryDy=0;" edge="1" parent="1">
          <mxGeometry width="50" height="50" relative="1" as="geometry">
            <mxPoint x="194.5" y="640" as="sourcePoint" />
            <mxPoint x="195.5" y="700" as="targetPoint" />
          </mxGeometry>
        </mxCell>
        <mxCell id="jJIhmOGZWyuEW_naS8Bt-17" value="" style="rhombus;whiteSpace=wrap;html=1;" vertex="1" parent="1">
          <mxGeometry x="155" y="700" width="80" height="80" as="geometry" />
        </mxCell>
        <mxCell id="jJIhmOGZWyuEW_naS8Bt-18" value="" style="endArrow=classic;html=1;exitX=0.45;exitY=1;exitDx=0;exitDy=0;exitPerimeter=0;entryX=1;entryY=0.5;entryDx=0;entryDy=0;curved=1;" edge="1" parent="1" target="jJIhmOGZWyuEW_naS8Bt-3">
          <mxGeometry width="50" height="50" relative="1" as="geometry">
            <mxPoint x="235" y="740" as="sourcePoint" />
            <mxPoint x="236" y="800" as="targetPoint" />
            <Array as="points">
              <mxPoint x="355" y="570" />
            </Array>
          </mxGeometry>
        </mxCell>
        <mxCell id="jJIhmOGZWyuEW_naS8Bt-20" value="Add another&lt;br&gt;item to cart" style="edgeLabel;html=1;align=center;verticalAlign=middle;resizable=0;points=[];" vertex="1" connectable="0" parent="jJIhmOGZWyuEW_naS8Bt-18">
          <mxGeometry x="-0.3323" y="29" relative="1" as="geometry">
            <mxPoint x="25.07" y="35.18" as="offset" />
          </mxGeometry>
        </mxCell>
        <mxCell id="jJIhmOGZWyuEW_naS8Bt-19" value="Checkout" style="endArrow=classic;html=1;exitX=0.45;exitY=1;exitDx=0;exitDy=0;exitPerimeter=0;entryX=0.5;entryY=0;entryDx=0;entryDy=0;" edge="1" parent="1">
          <mxGeometry x="0.0167" y="30" width="50" height="50" relative="1" as="geometry">
            <mxPoint x="194.5" y="780" as="sourcePoint" />
            <mxPoint x="195.5" y="840" as="targetPoint" />
            <mxPoint as="offset" />
          </mxGeometry>
        </mxCell>
        <mxCell id="jJIhmOGZWyuEW_naS8Bt-21" value="Payment" style="rounded=1;whiteSpace=wrap;html=1;" vertex="1" parent="1">
          <mxGeometry x="135" y="840" width="120" height="60" as="geometry" />
        </mxCell>
        <mxCell id="jJIhmOGZWyuEW_naS8Bt-22" value="" style="rhombus;whiteSpace=wrap;html=1;" vertex="1" parent="1">
          <mxGeometry x="150" y="960" width="80" height="80" as="geometry" />
        </mxCell>
        <mxCell id="jJIhmOGZWyuEW_naS8Bt-23" value="" style="endArrow=classic;html=1;exitX=0.45;exitY=1;exitDx=0;exitDy=0;exitPerimeter=0;entryX=0.5;entryY=0;entryDx=0;entryDy=0;" edge="1" parent="1">
          <mxGeometry x="0.0167" y="30" width="50" height="50" relative="1" as="geometry">
            <mxPoint x="189.5" y="900" as="sourcePoint" />
            <mxPoint x="190.5" y="960" as="targetPoint" />
            <mxPoint as="offset" />
          </mxGeometry>
        </mxCell>
        <mxCell id="jJIhmOGZWyuEW_naS8Bt-35" value="[Choose payment&lt;br&gt;&amp;nbsp;option]" style="edgeLabel;html=1;align=center;verticalAlign=middle;resizable=0;points=[];" vertex="1" connectable="0" parent="jJIhmOGZWyuEW_naS8Bt-23">
          <mxGeometry x="0.3666" relative="1" as="geometry">
            <mxPoint x="-55.18" y="9.01" as="offset" />
          </mxGeometry>
        </mxCell>
        <mxCell id="jJIhmOGZWyuEW_naS8Bt-24" value="" style="endArrow=classic;html=1;exitX=0.5;exitY=1;exitDx=0;exitDy=0;entryX=0.5;entryY=0;entryDx=0;entryDy=0;" edge="1" parent="1" source="jJIhmOGZWyuEW_naS8Bt-22" target="jJIhmOGZWyuEW_naS8Bt-26">
          <mxGeometry x="0.0167" y="30" width="50" height="50" relative="1" as="geometry">
            <mxPoint x="100" y="1170" as="sourcePoint" />
            <mxPoint x="390" y="1170" as="targetPoint" />
            <mxPoint as="offset" />
          </mxGeometry>
        </mxCell>
        <mxCell id="jJIhmOGZWyuEW_naS8Bt-25" value="Credit card" style="edgeLabel;html=1;align=center;verticalAlign=middle;resizable=0;points=[];" vertex="1" connectable="0" parent="jJIhmOGZWyuEW_naS8Bt-24">
          <mxGeometry x="-0.1172" y="1" relative="1" as="geometry">
            <mxPoint x="21.42" y="-6.390000000000001" as="offset" />
          </mxGeometry>
        </mxCell>
        <mxCell id="jJIhmOGZWyuEW_naS8Bt-26" value="Validation" style="rounded=1;whiteSpace=wrap;html=1;" vertex="1" parent="1">
          <mxGeometry x="370" y="1169" width="120" height="60" as="geometry" />
        </mxCell>
        <mxCell id="jJIhmOGZWyuEW_naS8Bt-27" value="" style="endArrow=classic;html=1;exitX=0.45;exitY=1;exitDx=0;exitDy=0;exitPerimeter=0;entryX=0.5;entryY=0;entryDx=0;entryDy=0;" edge="1" parent="1">
          <mxGeometry x="0.0167" y="30" width="50" height="50" relative="1" as="geometry">
            <mxPoint x="429.5" y="1229" as="sourcePoint" />
            <mxPoint x="430.5" y="1289" as="targetPoint" />
            <mxPoint as="offset" />
          </mxGeometry>
        </mxCell>
        <mxCell id="jJIhmOGZWyuEW_naS8Bt-28" value="Approval" style="rounded=1;whiteSpace=wrap;html=1;" vertex="1" parent="1">
          <mxGeometry x="370" y="1290" width="120" height="60" as="geometry" />
        </mxCell>
        <mxCell id="jJIhmOGZWyuEW_naS8Bt-29" value="" style="endArrow=classic;html=1;exitX=0.5;exitY=1;exitDx=0;exitDy=0;entryX=0;entryY=0.5;entryDx=0;entryDy=0;" edge="1" parent="1" target="jJIhmOGZWyuEW_naS8Bt-31">
          <mxGeometry x="0.0167" y="30" width="50" height="50" relative="1" as="geometry">
            <mxPoint x="230" y="1000" as="sourcePoint" />
            <mxPoint x="580" y="1000" as="targetPoint" />
            <mxPoint as="offset" />
          </mxGeometry>
        </mxCell>
        <mxCell id="jJIhmOGZWyuEW_naS8Bt-30" value="Paypal" style="edgeLabel;html=1;align=center;verticalAlign=middle;resizable=0;points=[];" vertex="1" connectable="0" parent="jJIhmOGZWyuEW_naS8Bt-29">
          <mxGeometry x="-0.1172" y="1" relative="1" as="geometry">
            <mxPoint x="11.420000000000002" y="-19" as="offset" />
          </mxGeometry>
        </mxCell>
        <mxCell id="jJIhmOGZWyuEW_naS8Bt-31" value="Validating paypal account" style="rounded=1;whiteSpace=wrap;html=1;" vertex="1" parent="1">
          <mxGeometry x="640" y="970" width="120" height="60" as="geometry" />
        </mxCell>
        <mxCell id="jJIhmOGZWyuEW_naS8Bt-32" value="" style="endArrow=classic;html=1;exitX=0.45;exitY=1;exitDx=0;exitDy=0;exitPerimeter=0;entryX=0.5;entryY=0;entryDx=0;entryDy=0;" edge="1" parent="1">
          <mxGeometry x="0.0167" y="30" width="50" height="50" relative="1" as="geometry">
            <mxPoint x="700" y="1030" as="sourcePoint" />
            <mxPoint x="701" y="1090" as="targetPoint" />
            <mxPoint as="offset" />
          </mxGeometry>
        </mxCell>
        <mxCell id="jJIhmOGZWyuEW_naS8Bt-33" value="Approval" style="rounded=1;whiteSpace=wrap;html=1;" vertex="1" parent="1">
          <mxGeometry x="640" y="1090" width="120" height="60" as="geometry" />
        </mxCell>
        <mxCell id="jJIhmOGZWyuEW_naS8Bt-34" value="Summary" style="rounded=1;whiteSpace=wrap;html=1;" vertex="1" parent="1">
          <mxGeometry x="150" y="1530" width="120" height="60" as="geometry" />
        </mxCell>
        <mxCell id="jJIhmOGZWyuEW_naS8Bt-36" value="" style="endArrow=none;html=1;verticalAlign=middle;strokeWidth=4;" edge="1" parent="1">
          <mxGeometry width="50" height="50" relative="1" as="geometry">
            <mxPoint x="170" y="1440" as="sourcePoint" />
            <mxPoint x="740" y="1440" as="targetPoint" />
          </mxGeometry>
        </mxCell>
        <mxCell id="jJIhmOGZWyuEW_naS8Bt-37" value="" style="endArrow=classic;html=1;exitX=0.5;exitY=1;exitDx=0;exitDy=0;" edge="1" parent="1" source="jJIhmOGZWyuEW_naS8Bt-33">
          <mxGeometry width="50" height="50" relative="1" as="geometry">
            <mxPoint x="680" y="1220" as="sourcePoint" />
            <mxPoint x="700" y="1440" as="targetPoint" />
          </mxGeometry>
        </mxCell>
        <mxCell id="jJIhmOGZWyuEW_naS8Bt-38" value="" style="endArrow=classic;html=1;exitX=0.45;exitY=1;exitDx=0;exitDy=0;exitPerimeter=0;" edge="1" parent="1">
          <mxGeometry width="50" height="50" relative="1" as="geometry">
            <mxPoint x="429.5" y="1350" as="sourcePoint" />
            <mxPoint x="431" y="1440" as="targetPoint" />
          </mxGeometry>
        </mxCell>
        <mxCell id="jJIhmOGZWyuEW_naS8Bt-39" value="" style="endArrow=classic;html=1;exitX=0.45;exitY=1;exitDx=0;exitDy=0;exitPerimeter=0;" edge="1" parent="1">
          <mxGeometry width="50" height="50" relative="1" as="geometry">
            <mxPoint x="220" y="1440" as="sourcePoint" />
            <mxPoint x="221.5" y="1530" as="targetPoint" />
          </mxGeometry>
        </mxCell>
        <mxCell id="jJIhmOGZWyuEW_naS8Bt-40" value="" style="rhombus;whiteSpace=wrap;html=1;" vertex="1" parent="1">
          <mxGeometry x="170" y="1710" width="80" height="80" as="geometry" />
        </mxCell>
        <mxCell id="jJIhmOGZWyuEW_naS8Bt-41" value="Finalize payment" style="endArrow=classic;html=1;exitX=0.45;exitY=1;exitDx=0;exitDy=0;exitPerimeter=0;" edge="1" parent="1">
          <mxGeometry x="0.8227" y="-51" width="50" height="50" relative="1" as="geometry">
            <mxPoint x="209.5" y="1590" as="sourcePoint" />
            <mxPoint x="211" y="1710" as="targetPoint" />
            <mxPoint as="offset" />
          </mxGeometry>
        </mxCell>
        <mxCell id="jJIhmOGZWyuEW_naS8Bt-46" value="Pay for orders" style="endArrow=classic;html=1;exitX=0.45;exitY=1;exitDx=0;exitDy=0;exitPerimeter=0;" edge="1" parent="1">
          <mxGeometry x="-0.0151" y="-41" width="50" height="50" relative="1" as="geometry">
            <mxPoint x="170" y="1745" as="sourcePoint" />
            <mxPoint x="172" y="1820" as="targetPoint" />
            <mxPoint as="offset" />
          </mxGeometry>
        </mxCell>
        <mxCell id="jJIhmOGZWyuEW_naS8Bt-47" value="Cancel orders" style="endArrow=classic;html=1;exitX=0.45;exitY=1;exitDx=0;exitDy=0;exitPerimeter=0;" edge="1" parent="1" target="jJIhmOGZWyuEW_naS8Bt-49">
          <mxGeometry x="-0.0965" y="39" width="50" height="50" relative="1" as="geometry">
            <mxPoint x="250" y="1740" as="sourcePoint" />
            <mxPoint x="251.5" y="1830" as="targetPoint" />
            <mxPoint as="offset" />
          </mxGeometry>
        </mxCell>
        <mxCell id="jJIhmOGZWyuEW_naS8Bt-48" value="" style="ellipse;html=1;shape=endState;fillColor=#000000;strokeColor=#ff0000;" vertex="1" parent="1">
          <mxGeometry x="155" y="1820" width="30" height="30" as="geometry" />
        </mxCell>
        <mxCell id="jJIhmOGZWyuEW_naS8Bt-49" value="" style="ellipse;html=1;shape=endState;fillColor=#000000;strokeColor=#ff0000;" vertex="1" parent="1">
          <mxGeometry x="236.5" y="1815" width="30" height="30" as="geometry" />
        </mxCell>
        <mxCell id="jJIhmOGZWyuEW_naS8Bt-50" value="ZARA app" style="swimlane;html=1;childLayout=stackLayout;resizeParent=1;resizeParentMax=0;startSize=20;" vertex="1" parent="1">
          <mxGeometry x="100" y="40" width="680" height="1840" as="geometry" />
        </mxCell>
        <mxCell id="jJIhmOGZWyuEW_naS8Bt-51" value="Customer" style="swimlane;html=1;startSize=20;" vertex="1" parent="jJIhmOGZWyuEW_naS8Bt-50">
          <mxGeometry y="20" width="250" height="1820" as="geometry" />
        </mxCell>
        <mxCell id="jJIhmOGZWyuEW_naS8Bt-52" value="Credit card company" style="swimlane;html=1;startSize=20;" vertex="1" parent="jJIhmOGZWyuEW_naS8Bt-50">
          <mxGeometry x="250" y="20" width="210" height="1820" as="geometry" />
        </mxCell>
        <mxCell id="jJIhmOGZWyuEW_naS8Bt-53" value="Paypal" style="swimlane;html=1;startSize=20;" vertex="1" parent="jJIhmOGZWyuEW_naS8Bt-50">
          <mxGeometry x="460" y="20" width="220" height="1820" as="geometry" />
        </mxCell>
      </root>
    </mxGraphModel>
  </diagram>
</mxfile>
